<svg width="58" height="58" viewBox="0 0 58 58" fill="none" xmlns="http://www.w3.org/2000/svg">
<circle cx="29" cy="29" r="29" fill="#55852F"/>
<path d="M39 37.0049H19C18.4697 37.0044 17.9613 36.7935 17.5864 36.4185C17.2114 36.0436 17.0005 35.5352 17 35.0049V21.0049C17.0005 20.4746 17.2114 19.9662 17.5864 19.5913C17.9613 19.2163 18.4697 19.0054 19 19.0049H39C39.5303 19.0054 40.0387 19.2163 40.4136 19.5913C40.7886 19.9662 40.9995 20.4746 41 21.0049V35.0049C40.9992 35.5351 40.7882 36.0433 40.4133 36.4182C40.0384 36.7931 39.5302 37.0041 39 37.0049ZM19 21.0049V35.0049H39V21.0049H19ZM15 39.0049H43V41.0049H15V39.0049Z" fill="white"/>
</svg>
