<svg width="40" height="40" viewBox="0 0 40 40" fill="none" xmlns="http://www.w3.org/2000/svg">
<circle cx="20" cy="20" r="20" fill="#F4F3F3"/>
<g clip-path="url(#clip0_8532_2)">
<path d="M28.3334 20.0001C28.3348 21.0977 28.1187 22.1847 27.6975 23.1984C27.2764 24.212 26.6585 25.1321 25.8797 25.9055C25.1072 26.6766 24.1903 27.2879 23.1815 27.7045C22.1726 28.1211 21.0916 28.3348 20.0001 28.3334C15.3976 28.3334 11.6668 24.6026 11.6668 20.0001C11.6638 17.8633 12.4846 15.8077 13.9584 14.2605C14.7361 13.4399 15.673 12.7866 16.7118 12.3407C17.7506 11.8947 18.8696 11.6654 20.0001 11.6668C21.0916 11.6653 22.1726 11.879 23.1815 12.2956C24.1903 12.7122 25.1072 13.3236 25.8797 14.0947C26.6585 14.8681 27.2764 15.7882 27.6975 16.8018C28.1187 17.8154 28.3348 18.9025 28.3334 20.0001V20.0001Z" stroke="black" stroke-width="1.5" stroke-linecap="round" stroke-linejoin="round"/>
<path d="M28.3334 20C27.1175 20 23.7634 19.5416 20.7613 20.8596C17.5 22.2916 15.1388 24.5129 14.1096 25.8946" stroke="black" stroke-width="1.5" stroke-linecap="round" stroke-linejoin="round"/>
<path d="M16.875 12.2727C18.1792 13.4765 21.025 16.541 22.0833 19.5835C23.1417 22.626 23.5333 26.3669 23.775 27.4315" stroke="black" stroke-width="1.5" stroke-linecap="round" stroke-linejoin="round"/>
<path d="M11.731 18.9583C13.3051 19.0533 17.4722 19.1387 20.1389 18C22.8055 16.8612 25.1001 14.7666 25.8872 14.1021M12.2918 23.1721C13.0261 24.9495 14.3504 26.4197 16.0418 27.335" stroke="black" stroke-width="1.5" stroke-linecap="round" stroke-linejoin="round"/>
<path d="M11.6668 20.0001C11.6638 17.8633 12.4846 15.8077 13.9584 14.2605M20.0001 11.6668C18.8696 11.6654 17.7506 11.8947 16.7118 12.3407C15.673 12.7866 14.7361 13.4399 13.9584 14.2605M23.3334 12.3601C24.2824 12.7753 25.1459 13.3635 25.8797 14.0947C26.6585 14.8681 27.2764 15.7882 27.6975 16.8018C28.1187 17.8154 28.3348 18.9025 28.3334 20.0001C28.3334 21.0259 28.148 22.0088 27.8084 22.9168M20.0001 28.3334C21.0916 28.3348 22.1726 28.1211 23.1815 27.7045C24.1903 27.2879 25.1072 26.6766 25.8797 25.9055" stroke="black" stroke-width="1.5" stroke-linecap="round" stroke-linejoin="round"/>
</g>
<defs>
<clipPath id="clip0_8532_2">
<rect width="20" height="20" fill="white" transform="translate(10 10)"/>
</clipPath>
</defs>
</svg>
