<svg width="40" height="40" viewBox="0 0 40 40" fill="none" xmlns="http://www.w3.org/2000/svg">
<circle cx="20" cy="20" r="20" fill="#F4F3F3"/>
<g clip-path="url(#clip0_8532_4)">
<path fill-rule="evenodd" clip-rule="evenodd" d="M16.2208 10.8883C17.1983 10.8433 17.5099 10.8333 19.9999 10.8333C22.4899 10.8333 22.8016 10.8441 23.7783 10.8883C24.7549 10.9324 25.4216 11.0883 26.0049 11.3141C26.6158 11.5449 27.1699 11.9058 27.6283 12.3724C28.0949 12.8299 28.4549 13.3833 28.6849 13.9949C28.9116 14.5783 29.0666 15.2449 29.1116 16.2199C29.1566 17.1991 29.1666 17.5108 29.1666 19.9999C29.1666 22.4899 29.1558 22.8016 29.1116 23.7791C29.0674 24.7541 28.9116 25.4208 28.6849 26.0041C28.4549 26.6158 28.0943 27.1701 27.6283 27.6283C27.1699 28.0949 26.6158 28.4549 26.0049 28.6849C25.4216 28.9116 24.7549 29.0666 23.7799 29.1116C22.8016 29.1566 22.4899 29.1666 19.9999 29.1666C17.5099 29.1666 17.1983 29.1558 16.2208 29.1116C15.2458 29.0674 14.5791 28.9116 13.9958 28.6849C13.384 28.4549 12.8298 28.0943 12.3716 27.6283C11.9052 27.1705 11.5443 26.6165 11.3141 26.0049C11.0883 25.4216 10.9333 24.7549 10.8883 23.7799C10.8433 22.8008 10.8333 22.4891 10.8333 19.9999C10.8333 17.5099 10.8441 17.1983 10.8883 16.2216C10.9324 15.2449 11.0883 14.5783 11.3141 13.9949C11.5447 13.3833 11.9059 12.8293 12.3724 12.3716C12.83 11.9053 13.3836 11.5445 13.9949 11.3141C14.5783 11.0883 15.2449 10.9333 16.2199 10.8883H16.2208ZM23.7041 12.5383C22.7374 12.4941 22.4474 12.4849 19.9999 12.4849C17.5524 12.4849 17.2624 12.4941 16.2958 12.5383C15.4016 12.5791 14.9166 12.7283 14.5933 12.8541C14.1658 13.0208 13.8599 13.2183 13.5391 13.5391C13.235 13.835 13.0009 14.1952 12.8541 14.5933C12.7283 14.9166 12.5791 15.4016 12.5383 16.2958C12.4941 17.2624 12.4849 17.5524 12.4849 19.9999C12.4849 22.4474 12.4941 22.7374 12.5383 23.7041C12.5791 24.5983 12.7283 25.0833 12.8541 25.4066C13.0008 25.8041 13.2349 26.1649 13.5391 26.4608C13.8349 26.7649 14.1958 26.9991 14.5933 27.1458C14.9166 27.2716 15.4016 27.4208 16.2958 27.4616C17.2624 27.5058 17.5516 27.5149 19.9999 27.5149C22.4483 27.5149 22.7374 27.5058 23.7041 27.4616C24.5983 27.4208 25.0833 27.2716 25.4066 27.1458C25.8341 26.9791 26.1399 26.7816 26.4608 26.4608C26.7649 26.1649 26.9991 25.8041 27.1458 25.4066C27.2716 25.0833 27.4208 24.5983 27.4616 23.7041C27.5058 22.7374 27.5149 22.4474 27.5149 19.9999C27.5149 17.5524 27.5058 17.2624 27.4616 16.2958C27.4208 15.4016 27.2716 14.9166 27.1458 14.5933C26.9791 14.1658 26.7816 13.8599 26.4608 13.5391C26.1649 13.235 25.8047 13.0009 25.4066 12.8541C25.0833 12.7283 24.5983 12.5791 23.7041 12.5383ZM18.8291 22.8258C19.483 23.0979 20.2111 23.1347 20.889 22.9297C21.567 22.7247 22.1527 22.2907 22.5463 21.7018C22.9398 21.1129 23.1166 20.4056 23.0466 19.7008C22.9766 18.996 22.6641 18.3374 22.1624 17.8374C21.8426 17.5178 21.4559 17.2731 21.0302 17.1209C20.6045 16.9687 20.1503 16.9127 19.7003 16.9571C19.2504 17.0015 18.8159 17.1451 18.4281 17.3775C18.0403 17.61 17.7089 17.9255 17.4577 18.3015C17.2065 18.6774 17.0417 19.1043 16.9753 19.5516C16.909 19.9988 16.9425 20.4552 17.0737 20.8878C17.2049 21.3205 17.4303 21.7188 17.7339 22.0539C18.0374 22.3889 18.4114 22.6526 18.8291 22.8258ZM16.6683 16.6683C17.1058 16.2307 17.6252 15.8837 18.1968 15.6469C18.7685 15.4101 19.3812 15.2882 19.9999 15.2882C20.6187 15.2882 21.2314 15.4101 21.803 15.6469C22.3747 15.8837 22.8941 16.2307 23.3316 16.6683C23.7691 17.1058 24.1162 17.6252 24.353 18.1968C24.5897 18.7685 24.7116 19.3812 24.7116 19.9999C24.7116 20.6187 24.5897 21.2314 24.353 21.803C24.1162 22.3747 23.7691 22.8941 23.3316 23.3316C22.448 24.2152 21.2495 24.7116 19.9999 24.7116C18.7503 24.7116 17.5519 24.2152 16.6683 23.3316C15.7846 22.448 15.2882 21.2495 15.2882 19.9999C15.2882 18.7503 15.7846 17.5519 16.6683 16.6683ZM25.7566 15.9899C25.865 15.8876 25.9518 15.7647 26.0118 15.6282C26.0719 15.4918 26.1039 15.3447 26.1061 15.1957C26.1083 15.0467 26.0805 14.8987 26.0245 14.7606C25.9685 14.6225 25.8853 14.497 25.7799 14.3916C25.6745 14.2862 25.549 14.203 25.4109 14.147C25.2728 14.091 25.1248 14.0632 24.9758 14.0654C24.8268 14.0676 24.6797 14.0996 24.5433 14.1597C24.4069 14.2197 24.2839 14.3065 24.1816 14.4149C23.9827 14.6258 23.8738 14.9059 23.878 15.1957C23.8822 15.4855 23.9992 15.7623 24.2042 15.9673C24.4092 16.1723 24.686 16.2893 24.9758 16.2935C25.2657 16.2977 25.5457 16.1888 25.7566 15.9899Z" fill="black"/>
</g>
<defs>
<clipPath id="clip0_8532_4">
<rect width="20" height="20" fill="white" transform="translate(10 10)"/>
</clipPath>
</defs>
</svg>
